<?xml version="1.0" encoding="UTF-8" standalone="no"?>
<svg
   xmlns:dc="http://purl.org/dc/elements/1.1/"
   xmlns:cc="http://creativecommons.org/ns#"
   xmlns:rdf="http://www.w3.org/1999/02/22-rdf-syntax-ns#"
   xmlns:svg="http://www.w3.org/2000/svg"
   xmlns="http://www.w3.org/2000/svg"
   xmlns:xlink="http://www.w3.org/1999/xlink"
   xmlns:sodipodi="http://sodipodi.sourceforge.net/DTD/sodipodi-0.dtd"
   xmlns:inkscape="http://www.inkscape.org/namespaces/inkscape"
   width="800"
   height="784.40717"
   id="svg2"
   version="1.1"
   inkscape:version="0.91 r13725"
   sodipodi:docname="BlazingSun5.svg">
  <metadata
     id="metadata14">
    <rdf:RDF>
      <cc:Work
         rdf:about="">
        <dc:format>image/svg+xml</dc:format>
        <dc:type
           rdf:resource="http://purl.org/dc/dcmitype/StillImage" />
        <dc:title></dc:title>
      </cc:Work>
    </rdf:RDF>
  </metadata>
  <defs
     id="defs12">
    <linearGradient
       id="linearGradient5108">
      <stop
         style="stop-color:#fff53c;stop-opacity:1;"
         offset="0"
         id="stop5110" />
      <stop
         style="stop-color:#ffb83c;stop-opacity:1;"
         offset="1"
         id="stop5112" />
    </linearGradient>
    <radialGradient
       inkscape:collect="always"
       xlink:href="#linearGradient5108"
       id="radialGradient5114"
       cx="400"
       cy="392.20358"
       fx="400"
       fy="392.20358"
       r="400"
       gradientTransform="matrix(1,0,0,0.98050895,0,7.6444596)"
       gradientUnits="userSpaceOnUse" />
  </defs>
  <sodipodi:namedview
     pagecolor="#ffffff"
     bordercolor="#666666"
     borderopacity="1"
     objecttolerance="10"
     gridtolerance="10"
     guidetolerance="10"
     inkscape:pageopacity="0"
     inkscape:pageshadow="2"
     inkscape:window-width="1600"
     inkscape:window-height="837"
     id="namedview10"
     showgrid="false"
     fit-margin-top="0"
     fit-margin-left="0"
     fit-margin-right="0"
     fit-margin-bottom="0"
     inkscape:zoom="0.85414824"
     inkscape:cx="400"
     inkscape:cy="392.20358"
     inkscape:window-x="-8"
     inkscape:window-y="-8"
     inkscape:window-maximized="1"
     inkscape:current-layer="svg2" />
  <path
     style="fill:url(#radialGradient5114);fill-opacity:1.0;fill-rule:evenodd;stroke:none"
     d="M 395.88522,0 377.69356,255.98268 314.88901,90.09204 343.04277,265.51164 238.65728,121.27775 311.42393,283.70331 173.68706,171.52139 285.86898,309.25826 123.87656,236.49161 267.67731,340.44397 92.25772,312.2902 258.58148,375.52789 0,393.71955 258.58148,411.91121 92.25772,475.14889 267.67731,446.99513 123.87656,550.94749 285.86898,478.18084 173.68706,615.91771 311.42393,503.73579 238.65728,665.72821 343.04277,521.92745 314.88901,697.34705 377.69356,531.02328 395.88522,784.40715 414.07688,531.02328 477.31456,697.34705 449.1608,521.92745 553.11316,665.72821 480.34651,503.73579 618.08338,615.91771 506.3346,478.18084 668.32702,550.94749 524.09312,446.99513 699.51272,475.14889 533.62209,411.91121 799.99999,393.71955 533.62209,375.52789 699.51272,312.2902 524.09312,340.44397 668.32702,236.49161 506.3346,309.25826 618.08338,171.52139 480.34651,283.70331 553.11316,121.27775 449.1608,265.51164 477.31456,90.09204 414.07688,255.98268 395.88522,0 Z m 4.33135,309.25826 c 45.9504,0 83.16188,37.21134 83.16188,83.16188 0,45.95055 -37.21148,83.16189 -83.16188,83.16189 -45.95069,0 -83.16189,-37.21134 -83.16189,-83.16189 0,-45.95054 37.2112,-83.16188 83.16189,-83.16188 z"
     id="path8"
     inkscape:connector-curvature="0" />
</svg>
